<svg width="41" height="40" viewBox="0 0 41 40" fill="none" xmlns="http://www.w3.org/2000/svg">
<path d="M31.4432 20.0208C33.8111 20.0208 35.7309 21.9405 35.7309 24.3084V25.7214C38.1074 25.7214 40.0269 27.6411 40.0269 30.0091V35.7123C40.0269 38.0803 38.1074 40 35.7392 40H27.1638C24.7958 40 22.876 38.0803 22.876 35.7123V30.0091C22.876 27.6437 24.7912 25.7259 27.1555 25.7214V24.3084C27.1555 21.9405 29.0752 20.0208 31.4432 20.0208ZM17.1508 0C26.6229 0 34.3016 7.67868 34.3016 17.1508L34.2913 17.7525C33.4187 17.3729 32.4554 17.1623 31.4429 17.1623C27.7909 17.1623 24.7784 19.9021 24.3493 23.4386C21.9518 24.4668 20.2302 26.769 20.036 29.4935L20.0177 30.0091V34.063C19.0854 34.2199 18.1277 34.3016 17.1508 34.3016C7.67868 34.3016 0 26.6229 0 17.1508C0 7.67868 7.67868 0 17.1508 0ZM31.4515 31.4312C30.6622 31.4312 30.0222 32.0712 30.0222 32.8604C30.0222 33.6499 30.6622 34.2896 31.4515 34.2896C32.241 34.2896 32.8807 33.6499 32.8807 32.8604C32.8807 32.0712 32.241 31.4312 31.4515 31.4312ZM31.4432 22.8792C30.7416 22.8792 30.158 23.3849 30.037 24.0516L30.0139 24.3084V25.7214H32.8724V24.3084C32.8724 23.5192 32.2324 22.8792 31.4432 22.8792ZM23.4094 11.737L23.2116 11.9026L15.0056 20.1305L11.0153 16.1402C10.4571 15.582 9.55218 15.582 8.99403 16.1402C8.49788 16.6363 8.44275 17.4065 8.82865 17.9635L8.99403 18.1614L13.9964 23.1639C14.4929 23.6604 15.264 23.7151 15.821 23.3282L16.019 23.1625L25.2354 13.9211C25.7928 13.3623 25.7917 12.4573 25.2329 11.8999C24.7361 11.4044 23.9659 11.3503 23.4094 11.737Z" fill="white"/>
</svg>
