<svg width="24" height="25" viewBox="0 0 24 25" fill="none" xmlns="http://www.w3.org/2000/svg">
<g clip-path="url(#clip0_235_975)">
<path d="M12.0006 5.5304C14.3891 5.5304 16.3254 4.40431 16.3254 3.0152C16.3254 1.62609 14.3891 0.5 12.0006 0.5C9.61206 0.5 7.67578 1.62609 7.67578 3.0152C7.67578 4.40431 9.61206 5.5304 12.0006 5.5304Z" fill="#E6007A"/>
<path d="M12.0006 24.4952C14.3891 24.4952 16.3254 23.3692 16.3254 21.98C16.3254 20.5909 14.3891 19.4648 12.0006 19.4648C9.61206 19.4648 7.67578 20.5909 7.67578 21.98C7.67578 23.3692 9.61206 24.4952 12.0006 24.4952Z" fill="#E6007A"/>
<path d="M5.97235 9.01935C7.16661 6.95089 7.15769 4.70995 5.95243 4.01408C4.74717 3.3182 2.80197 4.43089 1.60771 6.49935C0.413452 8.56781 0.42237 10.8088 1.62763 11.5046C2.83289 12.2005 4.77809 11.0878 5.97235 9.01935Z" fill="#E6007A"/>
<path d="M22.3859 18.497C23.5802 16.4285 23.5731 14.1887 22.3702 13.4941C21.1672 12.7995 19.2238 13.9133 18.0296 15.9818C16.8353 18.0502 16.8424 20.2901 18.0454 20.9847C19.2483 21.6792 21.1917 20.5654 22.3859 18.497Z" fill="#E6007A"/>
<path d="M5.95243 20.9815C7.15769 20.2857 7.16661 18.0447 5.97235 15.9763C4.77809 13.9078 2.83289 12.7951 1.62763 13.491C0.42237 14.1869 0.413452 16.4278 1.60771 18.4963C2.80197 20.5647 4.74717 21.6774 5.95243 20.9815Z" fill="#E6007A"/>
<path d="M22.3741 11.502C23.577 10.8074 23.5841 8.56758 22.3898 6.49912C21.1956 4.43066 19.2522 3.31689 18.0493 4.01144C16.8463 4.706 16.8392 6.94586 18.0335 9.01432C19.2278 11.0828 21.1711 12.1966 22.3741 11.502Z" fill="#E6007A"/>
</g>
<defs>
<clipPath id="clip0_235_975">
<rect width="24" height="24" fill="white" transform="translate(0 0.5)"/>
</clipPath>
</defs>
</svg>
