<svg width="21" height="24" viewBox="0 0 21 24" fill="none" xmlns="http://www.w3.org/2000/svg">
<g clip-path="url(#clip0_235_998)">
<path d="M3.54653 0.246848C2.92169 0.302903 2.24243 0.540311 1.73629 0.881585C0.78336 1.52292 0.163461 2.52201 0.0216748 3.63981C-0.0129472 3.91514 -0.00470391 4.50206 0.0365128 4.74607C0.105757 5.1467 0.214569 5.48467 0.390977 5.84244C0.958119 6.99652 2.04459 7.79118 3.32726 7.98571C3.55478 8.02197 4.27524 8.03844 4.39725 8.01211C4.75501 7.93622 4.99241 7.59003 4.92811 7.23885C4.87536 6.95364 4.65608 6.73764 4.37087 6.69152C4.31811 6.6816 4.13346 6.67498 3.9587 6.67498C3.72294 6.67498 3.59764 6.66675 3.45586 6.64372C2.72384 6.5184 2.08251 6.0749 1.68848 5.42367C1.06034 4.38336 1.2928 2.98529 2.2276 2.19392C2.56557 1.90706 2.93817 1.72406 3.38331 1.62514L3.54983 1.58887H9.86426C16.7326 1.58887 16.2479 1.58227 16.5512 1.68119C17.3789 1.94828 17.951 2.76437 17.951 3.67608C17.951 4.19047 17.7597 4.66528 17.4036 5.03623C17.308 5.13681 15.0147 6.98828 9.55096 11.3787C2.67768 16.9017 1.81048 17.6041 1.6044 17.8101C1.28291 18.1333 1.07188 18.4416 0.900415 18.8389C0.193136 20.4826 0.902063 22.4379 2.49468 23.2326C2.81287 23.3909 3.10799 23.4865 3.47564 23.5524C3.64216 23.5805 3.901 23.5821 10.2269 23.5821C16.4639 23.5821 16.8134 23.5805 16.97 23.5524C17.8125 23.4024 18.528 23.0381 19.1017 22.4676C19.4265 22.1445 19.6557 21.8263 19.8552 21.4223C20.3927 20.3326 20.3959 19.0829 19.8651 17.9931C19.3787 16.9973 18.4686 16.2373 17.4119 15.9488C16.9749 15.8285 16.8645 15.8169 16.1292 15.8169H15.4697L15.3576 15.8696C15.0889 15.9983 14.9322 16.2917 14.9817 16.5769C15.0229 16.8061 15.1515 16.9792 15.3576 17.0814L15.4697 17.1358L16.0633 17.1457C16.6633 17.1573 16.7606 17.1655 17.0277 17.2347C17.7152 17.4128 18.3533 17.9453 18.6665 18.5999C18.9995 19.2972 18.9995 20.1017 18.6665 20.7992C18.4489 21.2542 18.063 21.668 17.6129 21.9235C17.3195 22.0917 16.9634 22.2022 16.6122 22.2385C16.477 22.2516 14.7047 22.2549 10.0868 22.2516L3.74767 22.2467L3.5828 22.2088C2.82442 22.034 2.23584 21.4587 2.03965 20.697C1.9737 20.4414 1.95557 20.0639 1.99843 19.8165C2.06933 19.4126 2.25067 19.0631 2.54414 18.768C2.64306 18.6675 5.2562 16.5588 10.4165 12.4107C16.1028 7.84229 18.1867 6.15898 18.3137 6.03203C18.833 5.5127 19.1693 4.83675 19.2715 4.10309C19.3029 3.87722 19.2996 3.39416 19.2633 3.17159C19.0968 2.13128 18.5362 1.26573 17.6838 0.736502C17.2536 0.469419 16.7211 0.29466 16.1869 0.246848C15.9577 0.225416 3.78064 0.225416 3.54653 0.246848Z" fill="white"/>
<path d="M5.95874 3.48322C5.507 3.59368 5.28608 4.08499 5.51524 4.47572C5.56306 4.55651 5.69165 4.6818 5.76914 4.72138C5.9406 4.8104 5.70979 4.80381 8.91149 4.81205L11.8643 4.82029L6.62974 8.97493C3.07356 11.7975 1.37708 13.1527 1.34081 13.2038C1.08691 13.545 1.20727 14.0232 1.59306 14.2128C1.69857 14.2639 1.71506 14.2672 1.87993 14.2672C2.04809 14.2672 2.05963 14.2655 2.16515 14.2095C2.33496 14.1221 12.8188 5.79301 12.931 5.65782C13.2129 5.31819 13.3118 4.89778 13.2113 4.48561C13.081 3.96133 12.6672 3.58049 12.1248 3.48487C11.9994 3.46344 11.5972 3.46014 9.01041 3.46179C6.7369 3.46344 6.02139 3.46838 5.95874 3.48322Z" fill="white"/>
<path d="M17.8269 9.55008C17.7808 9.56163 17.7099 9.58965 17.6704 9.61105C17.5813 9.66054 7.1485 17.9368 7.02486 18.0572C6.72973 18.3391 6.57807 18.7513 6.62588 19.1403C6.70171 19.7636 7.13864 20.2335 7.73053 20.3241C7.82283 20.339 8.64058 20.3422 10.8959 20.339L13.9378 20.334L14.0482 20.2813C14.1999 20.2104 14.2972 20.1164 14.3697 19.968C14.5378 19.6284 14.3928 19.2212 14.0482 19.0596L13.9542 19.0151L10.9833 19.0102C9.34787 19.0085 8.01074 19.0002 8.01074 18.9936C8.01074 18.9854 10.342 17.129 13.1925 14.8687C16.0415 12.6067 18.4073 10.7239 18.4518 10.6827C18.4996 10.6382 18.5524 10.564 18.5886 10.4931C18.8392 9.98364 18.3809 9.41652 17.8269 9.55008Z" fill="white"/>
</g>
<defs>
<clipPath id="clip0_235_998">
<rect width="20.7568" height="24" fill="white"/>
</clipPath>
</defs>
</svg>
