<svg width="21" height="24" viewBox="0 0 21 24" fill="none" xmlns="http://www.w3.org/2000/svg">
<path d="M16.7156 24H4.093C3.37108 24 2.66698 23.7745 2.07787 23.3548C1.48877 22.9351 1.04372 22.3418 0.804144 21.6568C0.564572 20.9718 0.542296 20.229 0.74039 19.5307C0.938484 18.8324 1.34718 18.2132 1.91007 17.7586L17.5443 5.15376C17.8986 4.89192 18.1584 4.521 18.2843 4.09725C18.4101 3.6735 18.3951 3.22003 18.2416 2.80561C18.1064 2.37912 17.835 2.00945 17.4695 1.75397C17.104 1.49849 16.665 1.37148 16.2204 1.39265H3.98183C3.29299 1.39265 2.63236 1.66789 2.14527 2.15782C1.65819 2.64775 1.38455 3.31223 1.38455 4.0051C1.38455 4.69796 1.65819 5.36245 2.14527 5.85238C2.63236 6.34231 3.29299 6.61755 3.98183 6.61755H4.36587C4.46306 6.60264 4.56229 6.60858 4.65704 6.63496C4.75179 6.66135 4.83993 6.70759 4.91566 6.77065C4.99139 6.83372 5.05301 6.91217 5.09647 7.00088C5.13993 7.08958 5.16425 7.18653 5.16784 7.28535C5.17142 7.38417 5.15419 7.48265 5.11727 7.5743C5.08036 7.66595 5.02459 7.74872 4.95363 7.81717C4.88267 7.88561 4.79812 7.93819 4.70553 7.97146C4.61295 8.00472 4.51441 8.01792 4.4164 8.01018H3.98183C2.92578 8.01018 1.91299 7.58821 1.16625 6.83712C0.419513 6.08602 0 5.06731 0 4.0051C0 2.94289 0.419513 1.92418 1.16625 1.17308C1.91299 0.421982 2.92578 1.95387e-05 3.98183 1.95229e-05H16.2204C16.9417 -0.00240754 17.6457 0.221519 18.2344 0.640599C18.8232 1.05968 19.2673 1.65304 19.5049 2.33801C19.752 3.0219 19.7775 3.7669 19.5778 4.46628C19.3781 5.16565 18.9635 5.78349 18.3932 6.23127L2.81962 18.8463C2.48363 19.1182 2.23893 19.4875 2.11872 19.9041C1.99851 20.3207 2.0086 20.7644 2.14763 21.1751C2.28665 21.5857 2.54788 21.9434 2.89589 22.1996C3.24389 22.4558 3.66182 22.5982 4.093 22.6074H16.7156C17.3778 22.5658 17.9993 22.272 18.4536 21.7857C18.9079 21.2994 19.1608 20.6571 19.1608 19.9898C19.1608 19.3225 18.9079 18.6803 18.4536 18.194C17.9993 17.7077 17.3778 17.4138 16.7156 17.3723H15.9779C15.7956 17.3723 15.6208 17.2995 15.4919 17.1698C15.363 17.0402 15.2906 16.8644 15.2906 16.6811C15.2906 16.4977 15.363 16.3219 15.4919 16.1923C15.6208 16.0627 15.7956 15.9898 15.9779 15.9898H16.756C17.8121 15.9898 18.8249 16.4118 19.5716 17.1629C20.3184 17.914 20.7379 18.9327 20.7379 19.9949C20.7379 21.0571 20.3184 22.0758 19.5716 22.8269C18.8249 23.578 17.8121 24 16.756 24H16.7156Z" fill="url(#paint0_linear_235_840)"/>
<path d="M1.86542 14.4467C1.68044 14.4467 1.50304 14.3719 1.37225 14.2387C1.24145 14.1056 1.16797 13.925 1.16797 13.7367C1.17297 13.6354 1.19898 13.5362 1.24427 13.4458C1.28956 13.3553 1.35312 13.2757 1.43077 13.212L12.0542 4.60004H6.17139C5.99646 4.60072 5.82767 4.53445 5.69848 4.41439C5.5693 4.29432 5.48916 4.12922 5.47395 3.95183C5.48436 3.76351 5.56593 3.5866 5.70158 3.4581C5.83723 3.32961 6.01644 3.25951 6.20172 3.26246H12.1149C12.3857 3.25718 12.652 3.33346 12.8804 3.48174C13.1088 3.63001 13.2891 3.84367 13.3986 4.09588C13.523 4.37657 13.5507 4.69176 13.4773 4.9905C13.404 5.28923 13.2338 5.55405 12.9942 5.74213L2.28995 14.2409C2.17427 14.3548 2.02519 14.427 1.86542 14.4467Z" fill="url(#paint1_linear_235_840)"/>
<path d="M14.0879 20.4652H8.12137C7.83835 20.4635 7.5628 20.3758 7.33248 20.2142C7.10217 20.0526 6.92835 19.825 6.83485 19.5626C6.74135 19.3002 6.73274 19.0158 6.81021 18.7484C6.88768 18.481 7.04742 18.2436 7.26756 18.0689L17.9808 9.70175C18.1251 9.58921 18.3089 9.53755 18.4919 9.55815C18.6749 9.57875 18.8421 9.66991 18.9566 9.81158C19.0712 9.95325 19.1238 10.1338 19.1028 10.3136C19.0818 10.4934 18.989 10.6576 18.8448 10.7701L8.12137 19.1473H14.0472C14.2305 19.1473 14.4063 19.2188 14.536 19.3461C14.6656 19.4734 14.7384 19.6461 14.7384 19.8262C14.7384 20.0063 14.6656 20.179 14.536 20.3063C14.4063 20.4336 14.2305 20.5052 14.0472 20.5052L14.0879 20.4652Z" fill="url(#paint2_linear_235_840)"/>
<defs>
<linearGradient id="paint0_linear_235_840" x1="0.454778" y1="0.813233" x2="20.2003" y2="23.2457" gradientUnits="userSpaceOnUse">
<stop stop-color="white"/>
<stop offset="1" stop-color="white"/>
</linearGradient>
<linearGradient id="paint1_linear_235_840" x1="0.23804" y1="0.793089" x2="20.2531" y2="23.2619" gradientUnits="userSpaceOnUse">
<stop stop-color="white"/>
<stop offset="1" stop-color="white"/>
</linearGradient>
<linearGradient id="paint2_linear_235_840" x1="0.508236" y1="0.875299" x2="19.8397" y2="23.3632" gradientUnits="userSpaceOnUse">
<stop stop-color="white"/>
<stop offset="1" stop-color="white"/>
</linearGradient>
</defs>
</svg>
