<svg width="20" height="20" viewBox="0 0 20 20" fill="none" xmlns="http://www.w3.org/2000/svg">
<g clip-path="url(#clip0_235_1101)">
<path d="M18.8025 1.19764C16.8242 -0.780693 13.87 -0.298194 10 2.6143C6.13084 -0.298194 3.17751 -0.781527 1.19751 1.19764C-0.78249 3.1768 -0.298323 6.13013 2.61418 10.0001C-0.298323 13.8693 -0.781657 16.8235 1.19751 18.8026C1.56859 19.1874 2.0145 19.4921 2.5078 19.6981C3.00109 19.904 3.53133 20.0068 4.06584 20.0001C5.70834 20.0001 7.69168 19.1234 10 17.3868C12.3075 19.1234 14.2908 20.0001 15.9342 20.0001C16.4687 20.0068 16.9989 19.904 17.4922 19.6981C17.9855 19.4921 18.4314 19.1874 18.8025 18.8026C20.7817 16.8235 20.3025 13.8701 17.3858 10.0001C20.2983 6.13013 20.7817 3.1768 18.8025 1.19764ZM15.9042 1.69014C16.2226 1.68055 16.5397 1.73614 16.8359 1.85351C17.1321 1.97087 17.4012 2.14753 17.6267 2.37264C19.0817 3.82847 18.0067 6.30013 16.3033 8.65513C15.605 7.8318 14.8183 6.97596 13.9217 6.07847C13.025 5.18097 12.1667 4.3943 11.3433 3.69513C12.925 2.55097 14.56 1.69014 15.9042 1.69014ZM15.2592 10.0001C14.4167 11.0168 13.5242 11.9676 12.7458 12.7501C11.9675 13.5326 11.0167 14.4168 10 15.2593C8.98334 14.4168 8.03251 13.5243 7.25418 12.7501C6.47584 11.976 5.58334 11.0168 4.74084 10.0001C5.58334 8.98346 6.47584 8.0318 7.25418 7.2543C8.03251 6.4768 8.98334 5.58347 10 4.74013C11.0167 5.5818 11.9675 6.47596 12.75 7.2543C13.5325 8.03263 14.4167 8.98346 15.2592 10.0001ZM2.37334 2.37347C2.59857 2.14797 2.8676 1.971 3.16385 1.85347C3.4601 1.73595 3.77728 1.68036 4.09584 1.69014C5.44001 1.69014 7.07501 2.55097 8.65668 3.69513C7.83334 4.3943 6.97668 5.18097 6.07834 6.07847C5.18001 6.97596 4.39501 7.82846 3.69584 8.65513C1.99334 6.30013 0.916676 3.82847 2.37334 2.37347ZM2.37334 17.6235C0.918343 16.1685 1.99334 13.696 3.69584 11.3418C4.39501 12.1651 5.18168 13.021 6.07834 13.9185C6.97501 14.816 7.82834 15.6043 8.65251 16.3026C6.29834 18.0076 3.82668 19.0835 2.37334 17.6268V17.6235ZM17.6233 17.6235C16.1692 19.0768 13.6983 18.0043 11.3442 16.3026C12.1658 15.6043 13.0225 14.8135 13.9183 13.9185C14.8142 13.0235 15.6017 12.1685 16.3 11.3418C18.0067 13.7001 19.0833 16.1718 17.6267 17.6268L17.6233 17.6235Z" fill="white"/>
<path d="M9.99967 11.6668C10.9201 11.6668 11.6663 10.9206 11.6663 10.0002C11.6663 9.07969 10.9201 8.3335 9.99967 8.3335C9.0792 8.3335 8.33301 9.07969 8.33301 10.0002C8.33301 10.9206 9.0792 11.6668 9.99967 11.6668Z" fill="white"/>
</g>
<defs>
<clipPath id="clip0_235_1101">
<rect width="20" height="20" fill="white"/>
</clipPath>
</defs>
</svg>
