<svg width="24" height="25" viewBox="0 0 24 25" fill="none" xmlns="http://www.w3.org/2000/svg">
<g clip-path="url(#clip0_235_982)">
<path d="M1.62523 6.12286C1.99531 5.60609 2.33923 5.07161 2.7562 4.58753C3.5146 3.70707 4.37342 2.95251 5.35684 2.32793C6.23904 1.76768 7.16937 1.32608 8.16489 1.01729C9.715 0.536429 11.2974 0.393437 12.9091 0.577373C14.0872 0.711821 15.2223 1.01259 16.3033 1.49969C16.9577 1.79451 17.5732 2.15878 18.1765 2.55219C19.3923 3.34491 20.3662 4.37686 21.1804 5.55588C22.0499 6.81521 22.6151 8.21609 22.925 9.71868C23.1427 10.7739 23.2345 11.8389 23.1411 12.9109C23.026 14.2326 22.7325 15.507 22.1841 16.7319C21.7203 17.7679 21.1478 18.7191 20.4148 19.5783C19.6977 20.4188 18.889 21.1542 17.9596 21.7604C17.3268 22.1732 16.6672 22.5417 15.9708 22.8152C14.8056 23.273 13.5973 23.5826 12.333 23.6368C11.4429 23.6749 10.5577 23.6599 9.67963 23.5041C8.9254 23.3703 8.18928 23.175 7.46861 22.9043C6.76944 22.6418 6.09134 22.3307 5.46657 21.9375C4.5658 21.3705 3.75379 20.6824 3.0312 19.8896C2.22609 19.0063 1.57329 18.0269 1.0738 16.9451C0.368205 15.4171 0.0212128 13.8059 0.000572755 12.1247C-0.00720324 11.4924 0.0653247 10.865 0.149613 10.2391C0.155661 10.1944 0.149517 10.148 0.149037 10.1023C0.222765 10.0566 0.216237 9.97664 0.229533 9.90689C0.417021 8.92371 0.733245 7.98406 1.1616 7.0794C1.31337 6.75905 1.5228 6.46673 1.62523 6.12286ZM15.1481 12.3326C15.4619 12.1659 15.7601 12.0703 15.9957 11.8598C16.9038 11.0487 17.1458 9.13952 15.6719 8.21984C15.2127 7.93332 14.7229 7.72097 14.1949 7.5043C14.2822 6.79721 14.5649 6.13553 14.6567 5.41136C14.2211 5.3034 13.813 5.16012 13.3883 5.11409C13.2147 5.79459 13.0483 6.447 12.876 7.12227C12.5506 7.02262 12.2155 7.03208 11.9092 6.85956C12.0197 6.16884 12.2823 5.52171 12.354 4.82849C11.9066 4.75822 11.5277 4.58398 11.0933 4.56521C10.9223 5.24724 10.7568 5.9072 10.5852 6.59153C9.72388 6.45953 8.93309 6.16332 8.06424 6.00406C7.87334 6.43174 7.78881 6.88299 7.71221 7.36308C7.99521 7.4299 8.24126 7.48899 8.48779 7.54601C9.11011 7.68992 9.28061 8.03014 9.13286 8.57436C9.02774 8.96148 8.93289 9.35144 8.83613 9.74081C8.48837 11.1405 8.14339 12.5408 7.79356 13.9399C7.71475 14.2552 7.51833 14.3578 7.19846 14.311C6.88344 14.265 6.58612 14.1235 6.23894 14.1338C6.08841 14.6153 5.7888 15.0396 5.68272 15.5712C6.51004 15.7819 7.31044 15.9859 8.14723 16.199C8.08425 16.929 7.78176 17.597 7.69238 18.3322C8.11185 18.4327 8.5067 18.5274 8.91849 18.6261C9.18984 17.952 9.25243 17.2435 9.50534 16.5463C9.81019 16.703 10.1484 16.6575 10.4467 16.8547C10.2841 17.5269 10.1221 18.1964 9.95817 18.8744C10.3895 19.0288 10.8103 19.0918 11.2426 19.1994C11.4175 18.4984 11.5867 17.8205 11.7503 17.1649C11.8522 17.1125 11.9267 17.1223 11.9972 17.1373C12.6746 17.2823 13.3599 17.3162 14.0456 17.24C14.6393 17.1741 15.1661 16.9478 15.5887 16.5022C16.0587 16.0067 16.2948 15.4005 16.4085 14.7485C16.5011 14.2174 16.4774 13.6792 16.1656 13.2091C15.9212 12.8407 15.5855 12.5597 15.1481 12.3326ZM10.2507 15.1002C11.0865 15.3078 11.9213 15.5298 12.7957 15.3701C13.262 15.285 13.6135 15.0471 13.755 14.578C13.8884 14.1355 13.8108 13.7335 13.4827 13.3838C13.1414 13.0201 12.7025 12.8311 12.2499 12.673C11.7093 12.4842 11.1611 12.3127 10.5704 12.266C10.344 13.1861 10.1243 14.0791 9.89976 14.9918C10.0428 15.0364 10.1454 15.074 10.2507 15.1002ZM13.2027 11.2446C13.6649 11.1789 14.0481 10.8732 14.1607 10.4577C14.2984 9.94976 14.1445 9.50422 13.7334 9.2012C13.267 8.85737 12.7298 8.68246 12.1749 8.56102C11.9681 8.51576 11.7647 8.39523 11.5146 8.47659C11.3157 9.28476 11.116 10.0964 10.9098 10.9346C11.6998 11.1341 12.4271 11.3548 13.2027 11.2446Z" fill="#F39321"/>
</g>
<defs>
<clipPath id="clip0_235_982">
<rect width="24" height="24" fill="white" transform="translate(0 0.5)"/>
</clipPath>
</defs>
</svg>
