<svg width="34" height="40" viewBox="0 0 34 40" fill="none" xmlns="http://www.w3.org/2000/svg">
<path d="M4.64092 32.7765V35.0129C4.64092 38.9268 6.06064 39.9998 11.2366 39.9998H20.2789C25.4514 39.9998 26.8711 38.9268 26.8711 35.0129V32.7765H4.64092ZM18.897 8.61597C18.0572 8.62017 17.1754 9.19941 16.6963 10.1302C16.1927 11.108 16.1927 12.319 16.6963 13.2968C17.1348 14.1464 17.9767 14.5155 19.1954 14.8321L26.4292 16.1965C26.8599 16.2805 27.1408 16.6896 27.0609 17.1161C26.9769 17.5426 26.5573 17.82 26.1273 17.7402L21.5452 16.9809C18.8641 18.5064 18.4957 21.8221 18.4957 25.175C18.4957 25.6092 18.1377 25.9594 17.7007 25.9594C17.2587 25.9594 16.9015 25.6092 16.9015 25.175C16.9015 22.0196 17.2482 18.608 19.5498 16.4962L18.8417 16.3611C17.4051 15.9891 16.0232 15.4561 15.278 14.0084C15.2339 13.9243 15.2016 13.8403 15.1652 13.7569C14.7485 14.381 14.1622 14.9063 13.4317 15.2705C12.7138 15.6326 11.9104 15.8105 11.105 15.8105C10.2988 15.8105 9.49263 15.6284 8.77402 15.2705C7.8838 14.8223 7.2009 14.1324 6.79327 13.3304C6.44656 13.6841 6.03402 13.9979 5.56055 14.2353C4.84123 14.5974 4.03506 14.7753 3.2296 14.7753C2.42273 14.7753 1.61656 14.5974 0.897244 14.2353C0.573656 14.0749 0.280886 13.8739 0.0147317 13.6519L2.31822e-05 19.087C-0.00628048 23.3623 1.27406 24.9677 2.50678 26.5142C3.46283 27.7139 4.4364 28.9621 4.60029 31.2104H26.911C27.1121 28.8493 28.0786 27.6607 29.1874 26.3215C30.4712 24.7715 32.0653 22.8461 33.1201 18.0483C34.3024 12.7112 33.7001 10.8986 30.4215 10.0154L18.897 8.61597Z" fill="white"/>
<path d="M3.14545 1.60463C2.59072 1.60463 2.0318 1.7286 1.53661 1.97725C0.6541 2.4185 0.10288 3.21066 0.0342397 4.06726L0.0195312 10.2617C0.0636569 10.3562 0.0888721 10.4627 0.0888721 10.5719C0.0888721 11.4909 0.676513 12.3594 1.62136 12.8371C2.61314 13.3329 3.84725 13.3329 4.83903 12.8335C5.68232 12.4105 6.21883 11.6702 6.32739 10.8605L5.84201 2.9249C5.57656 2.53827 5.21235 2.20698 4.75148 1.97655C4.25769 1.7286 3.70297 1.60463 3.14545 1.60463ZM25.9703 1.3826C25.4121 1.3826 24.858 1.50657 24.3615 1.75522C23.8481 2.01787 23.4313 2.408 23.1652 2.85626V7.39839C23.1652 7.45303 23.1477 7.50065 23.1357 7.55178L29.1109 8.2739V4.01963C29.1109 3.1007 28.5212 2.2322 27.5756 1.75522C27.0797 1.50657 26.525 1.3826 25.9703 1.3826ZM10.5613 0C10.0066 0 9.4491 0.123272 8.95602 0.371916C8.01187 0.846091 7.42423 1.71109 7.42073 2.63003L7.96424 11.5602C7.96424 12.5261 8.55188 13.3981 9.49603 13.8723C10.4885 14.3646 11.7177 14.3646 12.7102 13.868C13.6557 13.3939 14.242 12.5261 14.242 11.6029L13.702 2.64053C13.702 1.7174 13.115 0.848892 12.1667 0.371215C11.6736 0.123271 11.1161 0 10.5613 0ZM18.4339 0C17.8757 0 17.3203 0.123272 16.8251 0.371916C15.8837 0.846091 15.2961 1.71109 15.2961 2.63003L15.6687 8.7957C16.4672 7.70867 17.6859 7.05099 18.9914 7.05099L21.5745 7.36127V2.63773C21.5745 1.7181 20.9834 0.850293 20.0393 0.372616C19.542 0.123271 18.9886 0 18.4339 0Z" fill="white"/>
</svg>
